# xmcd CD database file
#
# Track frame offsets:
#	150
#	23122
#	52552
#	91090
#	120992
#	151365
#	168812
#	193852
#	225220
#	262250
#
# Disc length: 3842 seconds
#
# Revision: 0
# Processed by: cddbd v1.5.2PL0 Copyright (c) Steve Scherf et al.
# Submitted via: CDex 1.70beta2
#
DISCID=690f000a
DTITLE=Eijiro Nakagawa - EIJIRO NAKAGAWA and FUNK'55
DYEAR=1997
DGENRE=Jazz
TTITLE0=Scramble
TTITLE1=Here's that rainy day
TTITLE2=Golsonesque
TTITLE3=Dare to dream
TTITLE4=Hit and miss
TTITLE5=Opus de funk
TTITLE6=Autumn leaves
TTITLE7=Casa montegro blues
TTITLE8=Dean street cafe blues
TTITLE9=The preacher
EXTD=YEAR: 1997
EXTT0=
EXTT1=
EXTT2=
EXTT3=
EXTT4=
EXTT5=
EXTT6=
EXTT7=
EXTT8=
EXTT9=
PLAYORDER=
